<svg width="24" height="24" viewBox="0 0 24 24" fill="none" xmlns="http://www.w3.org/2000/svg">
<path d="M23.9837 2.69853C24.1007 2.15389 23.5668 1.69466 23.0459 1.89341L0.452341 10.5183C0.180422 10.6222 0.000563818 10.8828 1.32316e-06 11.1738C-0.000561172 11.4649 0.178265 11.7262 0.44981 11.8311L6.79677 14.2824V22.0033C6.79677 22.329 7.02041 22.612 7.33728 22.6873C7.65204 22.7622 7.98026 22.6124 8.12782 22.3197L10.7528 17.1106L17.1589 21.8648C17.5486 22.154 18.1087 21.97 18.2505 21.5053C24.2316 1.89496 23.9731 2.7478 23.9837 2.69853ZM18.4065 5.16966L7.40023 13.008L2.66459 11.179L18.4065 5.16966ZM8.20301 14.1626L17.7967 7.33035C9.54146 16.0392 9.97262 15.5808 9.93662 15.6293C9.88313 15.7012 10.0297 15.4208 8.20301 19.0456V14.1626ZM17.1963 20.1413L11.5574 15.9565L21.7532 5.2006L17.1963 20.1413Z" fill="white"/>
</svg>
